<svg width="24" height="24" viewBox="0 0 24 24" fill="none" xmlns="http://www.w3.org/2000/svg">
  <path d="M12 2C9.23858 2 7 4.23858 7 7V10H6C4.89543 10 4 10.8954 4 12V19C4 20.1046 4.89543 21 6 21H18C19.1046 21 20 20.1046 20 19V12C20 10.8954 19.1046 10 18 10H17V7C17 4.23858 14.7614 2 12 2ZM14 10H10V7C10 5.34315 11.3431 4 13 4C14.6569 4 16 5.34315 16 7V10ZM12 12C12.5523 12 13 12.4477 13 13V17C13 17.5523 12.5523 18 12 18C11.4477 18 11 17.5523 11 17V13C11 12.4477 11.4477 12 12 12Z" stroke="#CDE9DF" stroke-width="1.5" stroke-linecap="round"/>
</svg>
