<svg width="32" height="32" viewBox="0 0 24 24" fill="none" xmlns="http://www.w3.org/2000/svg">
  <path stroke="#10b981" stroke-width="2" d="M16 14c-1.1 0-2 .9-2 2v2h8v-2c0-1.1-.9-2-2-2h-4zM12 12c2.21 0 4-1.79 4-4s-1.79-4-4-4-4 1.79-4 4 1.79 4 4 4z"/>
  <path stroke="#10b981" stroke-width="2" d="M4 18v-2c0-1.1.9-2 2-2h2c-1.1 0-2 .9-2 2v2h8v-2c0-1.1-.9-2-2-2H6c-1.1 0-2 .9-2 2v2h2zm10-10c0 1.1-.9 2-2 2s-2-.9-2-2 .9-2 2-2 2 .9 2 2z"/>
  <path stroke="#10b981" stroke-width="2" d="M8 14h4c1.1 0 2 .9 2 2v2H6v-2c0-1.1.9-2 2-2z"/>
</svg>
